<?xml version="1.0" encoding="UTF-8" standalone="no"?>
<!-- Generator: Adobe Illustrator 18.1.1, SVG Export Plug-In . SVG Version: 6.00 Build 0)  -->

<svg
   xmlns:dc="http://purl.org/dc/elements/1.1/"
   xmlns:cc="http://creativecommons.org/ns#"
   xmlns:rdf="http://www.w3.org/1999/02/22-rdf-syntax-ns#"
   xmlns:svg="http://www.w3.org/2000/svg"
   xmlns="http://www.w3.org/2000/svg"
   xmlns:sodipodi="http://sodipodi.sourceforge.net/DTD/sodipodi-0.dtd"
   xmlns:inkscape="http://www.inkscape.org/namespaces/inkscape"
   version="1.1"
   id="Layer_1"
   x="0px"
   y="0px"
   viewBox="0 0 16 16.1"
   enable-background="new 0 0 24 24"
   xml:space="preserve"
   inkscape:version="0.91 r13725"
   sodipodi:docname="Gear_icon.svg"
   width="12.8pt"
   height="12.88pt"><metadata
     id="metadata4214"><rdf:RDF><cc:Work
         rdf:about=""><dc:format>image/svg+xml</dc:format><dc:type
           rdf:resource="http://purl.org/dc/dcmitype/StillImage" /><dc:title></dc:title><cc:license
           rdf:resource="http://creativecommons.org/licenses/by-sa/3.0/" /></cc:Work><cc:License
         rdf:about="http://creativecommons.org/licenses/by-sa/3.0/"><cc:permits
           rdf:resource="http://creativecommons.org/ns#Reproduction" /><cc:permits
           rdf:resource="http://creativecommons.org/ns#Distribution" /><cc:requires
           rdf:resource="http://creativecommons.org/ns#Notice" /><cc:requires
           rdf:resource="http://creativecommons.org/ns#Attribution" /><cc:permits
           rdf:resource="http://creativecommons.org/ns#DerivativeWorks" /><cc:requires
           rdf:resource="http://creativecommons.org/ns#ShareAlike" /></cc:License></rdf:RDF></metadata><defs
     id="defs4212" /><sodipodi:namedview
     pagecolor="#ffffff"
     bordercolor="#666666"
     borderopacity="1"
     objecttolerance="10"
     gridtolerance="10"
     guidetolerance="10"
     inkscape:pageopacity="0"
     inkscape:pageshadow="2"
     inkscape:window-width="1920"
     inkscape:window-height="1055"
     id="namedview4210"
     showgrid="false"
     fit-margin-top="0"
     fit-margin-left="0"
     fit-margin-right="0.5"
     fit-margin-bottom="0"
     units="pt"
     inkscape:zoom="36.083333"
     inkscape:cx="6.6836028"
     inkscape:cy="11.31709"
     inkscape:window-x="0"
     inkscape:window-y="25"
     inkscape:window-maximized="1"
     inkscape:current-layer="Layer_1" /><path
     d="M 16,9.5 16,6.6 14.2,6.3 C 14.1,5.9 13.9,5.5 13.6,4.9 L 14.7,3.4 12.6,1.3 11.1,2.4 C 10.6,2.1 10.1,1.9 9.7,1.8 L 9.5,0 6.6,0 6.3,1.8 C 5.8,1.9 5.4,2.1 4.9,2.4 L 3.4,1.3 1.3,3.4 2.3,4.9 C 2,5.4 1.9,5.8 1.7,6.3 L 0,6.5 0,9.4 1.8,9.7 c 0.1,0.5 0.3,0.9 0.6,1.4 l -1,1.5 2.1,2.1 1.5,-1 c 0.4,0.2 0.9,0.4 1.4,0.6 l 0.3,1.8 3,0 0.3,-1.8 c 0.5,-0.1 0.9,-0.3 1.4,-0.6 l 1.5,1.1 2.1,-2.1 -1.1,-1.5 c 0.3,-0.5 0.5,-1 0.6,-1.4 L 16,9.5 Z M 8,11 C 6.3,11 5,9.7 5,8 5,6.3 6.3,5 8,5 c 1.7,0 3,1.3 3,3 0,1.7 -1.3,3 -3,3 z"
     id="path4208"
     inkscape:connector-curvature="0" /></svg>